文件 65m
Duration: 00:45:25.91, start: 0.000000, bitrate: 200 kb/s
Stream #0:0: Audio: aac (LC), 44100 Hz, stereo, fltp
Stream #0:1: Video: h264 (Constrained Baseline), yuv420p(progressive), 480x640, 100 tbr, 1k tbn

拉流1000个：
带宽：23MB
内存：135MB
cpu：7%

拉流3000个：
带宽：60MB
内存：153MB
cpu：24%

拉流5000个：
带宽：110MB
内存：446MB
cpu：50%


推流100个：
带宽：2MB
内存：22MB
cpu：7%

推流300个：
带宽：6MB
内存：65MB
cpu：29%

推流500个：
带宽：11MB
内存：187MB
cpu：50%

